<?xml version="1.0" standalone="no"?>
<!DOCTYPE svg PUBLIC "-//W3C//DTD SVG 20010904//EN"
 "http://www.w3.org/TR/2001/REC-SVG-20010904/DTD/svg10.dtd">
<svg version="1.0" xmlns="http://www.w3.org/2000/svg"
 width="600.000000pt" height="600.000000pt" viewBox="0 0 600.000000 600.000000"
 preserveAspectRatio="xMidYMid meet">
<metadata>
Created by potrace 1.14, written by Peter Selinger 2001-2017
</metadata>
<g transform="translate(0.000000,600.000000) scale(0.100000,-0.100000)"
fill="#000000" stroke="none">
<path d="M4409 4756 c-48 -17 -93 -50 -120 -88 l-22 -31 23 -19 23 -19 41 39
c23 22 51 45 63 51 30 15 99 14 132 -4 29 -14 61 -69 61 -102 -1 -60 -69 -139
-273 -313 -73 -62 -97 -96 -82 -119 4 -7 81 -11 221 -11 l214 0 0 30 0 30
-147 1 c-82 1 -154 1 -160 0 -25 -3 -11 15 57 73 122 105 202 188 221 230 22
49 24 114 5 159 -35 86 -156 129 -257 93z"/>
<path d="M2925 4735 c-33 -12 -60 -28 -59 -34 1 -6 2 -18 3 -26 1 -19 27 -19
80 0 l41 14 0 -274 0 -275 35 0 35 0 0 310 0 310 -37 -1 c-21 -1 -65 -11 -98
-24z"/>
<path d="M2287 3703 c-4 -3 -7 -323 -7 -710 l0 -703 715 0 715 0 -2 708 -3
707 -706 3 c-388 1 -709 -1 -712 -5z"/>
<path d="M3770 3000 l0 -710 710 0 710 0 0 710 0 710 -710 0 -710 0 0 -710z"/>
<path d="M1439 3287 c-43 -16 -77 -42 -113 -84 l-25 -30 25 -24 25 -23 25 31
c39 50 84 73 144 73 46 0 56 -4 86 -34 28 -28 34 -41 34 -78 0 -66 -38 -115
-204 -262 -125 -109 -146 -132 -146 -157 l0 -29 215 0 215 0 0 35 0 34 -156 3
-156 3 126 112 c72 65 136 132 152 159 56 96 27 216 -63 259 -48 24 -137 29
-184 12z"/>
<path d="M3770 1530 l0 -710 518 0 c557 0 566 1 671 54 106 54 194 172 220
294 7 35 11 223 11 562 l0 510 -710 0 -710 0 0 -710z"/>
<path d="M2648 1903 c-10 -3 -21 -16 -24 -30 -6 -22 11 -43 152 -184 l159
-159 -158 -158 c-86 -86 -157 -164 -157 -173 0 -21 20 -39 45 -39 13 0 75 55
175 155 l155 155 155 -155 c99 -99 163 -155 176 -155 24 0 44 18 44 39 0 9
-71 87 -157 173 l-158 158 159 159 c164 165 173 179 128 209 -22 15 -27 11
-185 -146 l-163 -162 -149 151 c-83 83 -157 154 -165 158 -8 4 -23 6 -32 4z"/>
<path d="M1452 1802 c-68 -25 -72 -29 -67 -52 4 -14 8 -26 10 -28 3 -3 72 14
101 25 12 4 14 -35 14 -271 l0 -276 35 0 35 0 0 315 0 315 -27 -1 c-16 0 -61
-12 -101 -27z"/>
</g>
</svg>
